<mxfile host="app.diagrams.net" modified="2023-12-05T11:09:42.250Z" agent="Mozilla/5.0 (Windows NT 10.0; Win64; x64) AppleWebKit/537.36 (KHTML, like Gecko) Chrome/119.0.0.0 Safari/537.36 Edg/119.0.0.0" etag="_aa9Ck5SrIVvsXV3Js6A" version="22.1.5" type="device">
  <diagram name="Seite-1" id="P05IvNO4HQPUka2L_eTn">
    <mxGraphModel dx="956" dy="541" grid="1" gridSize="10" guides="1" tooltips="1" connect="1" arrows="1" fold="1" page="1" pageScale="1" pageWidth="827" pageHeight="1169" math="0" shadow="0">
      <root>
        <mxCell id="0" />
        <mxCell id="1" parent="0" />
        <mxCell id="_-7BfLkcEHN0cJCa3kRo-1" value="&lt;font style=&quot;font-size: 14px;&quot;&gt;Projektbeauftragung ist erfolgt&lt;/font&gt;" style="rhombus;whiteSpace=wrap;html=1;fillColor=#dae8fc;strokeColor=#6c8ebf;" parent="1" vertex="1">
          <mxGeometry x="60" y="80" width="180" height="140" as="geometry" />
        </mxCell>
        <mxCell id="_-7BfLkcEHN0cJCa3kRo-3" value="&lt;font style=&quot;font-size: 14px;&quot;&gt;Projektstart&lt;/font&gt;" style="rounded=0;whiteSpace=wrap;html=1;" parent="1" vertex="1">
          <mxGeometry x="60" y="280" width="180" height="60" as="geometry" />
        </mxCell>
        <mxCell id="_-7BfLkcEHN0cJCa3kRo-4" value="&lt;span style=&quot;font-size: 14px;&quot;&gt;Projektcontrolling&lt;br&gt;&lt;/span&gt;" style="rounded=0;whiteSpace=wrap;html=1;" parent="1" vertex="1">
          <mxGeometry x="60" y="370" width="180" height="60" as="geometry" />
        </mxCell>
        <mxCell id="_-7BfLkcEHN0cJCa3kRo-5" value="&lt;span style=&quot;font-size: 14px;&quot;&gt;BewÃ¤ltigung einer Projektkrise&lt;br&gt;&lt;/span&gt;" style="rounded=0;whiteSpace=wrap;html=1;strokeColor=default;dashed=1;" parent="1" vertex="1">
          <mxGeometry x="60" y="460" width="180" height="60" as="geometry" />
        </mxCell>
        <mxCell id="_-7BfLkcEHN0cJCa3kRo-6" value="&lt;span style=&quot;font-size: 14px;&quot;&gt;Projektabschluss&lt;br&gt;&lt;/span&gt;" style="rounded=0;whiteSpace=wrap;html=1;" parent="1" vertex="1">
          <mxGeometry x="60" y="554.5" width="180" height="60" as="geometry" />
        </mxCell>
        <mxCell id="_-7BfLkcEHN0cJCa3kRo-7" value="&lt;span style=&quot;font-size: 14px;&quot;&gt;Laufende Projekt-koordiantion&lt;br&gt;&lt;/span&gt;" style="rounded=0;whiteSpace=wrap;html=1;" parent="1" vertex="1">
          <mxGeometry x="340" y="280" width="100" height="334.5" as="geometry" />
        </mxCell>
        <mxCell id="_-7BfLkcEHN0cJCa3kRo-8" value="&lt;span style=&quot;font-size: 14px;&quot;&gt;Laufendes Projekt-Marketing&lt;br&gt;&lt;/span&gt;" style="rounded=0;whiteSpace=wrap;html=1;strokeColor=default;dashed=1;" parent="1" vertex="1">
          <mxGeometry x="460" y="280" width="100" height="334.5" as="geometry" />
        </mxCell>
        <mxCell id="_-7BfLkcEHN0cJCa3kRo-10" value="&lt;font style=&quot;font-size: 14px;&quot;&gt;Projektabnahme ist erfolgt&lt;/font&gt;" style="rhombus;whiteSpace=wrap;html=1;fillColor=#dae8fc;strokeColor=#6c8ebf;" parent="1" vertex="1">
          <mxGeometry x="60" y="670" width="180" height="140" as="geometry" />
        </mxCell>
        <mxCell id="kfsJDI4HwSLp78lYv02s-2" value="" style="endArrow=classic;html=1;rounded=0;exitX=0.5;exitY=1;exitDx=0;exitDy=0;entryX=0.5;entryY=0;entryDx=0;entryDy=0;" edge="1" parent="1" source="_-7BfLkcEHN0cJCa3kRo-1" target="_-7BfLkcEHN0cJCa3kRo-3">
          <mxGeometry width="50" height="50" relative="1" as="geometry">
            <mxPoint x="150" y="240" as="sourcePoint" />
            <mxPoint x="200" y="190" as="targetPoint" />
          </mxGeometry>
        </mxCell>
        <mxCell id="kfsJDI4HwSLp78lYv02s-5" value="" style="endArrow=classic;html=1;rounded=0;exitX=0.5;exitY=1;exitDx=0;exitDy=0;entryX=0.5;entryY=0;entryDx=0;entryDy=0;" edge="1" parent="1" source="_-7BfLkcEHN0cJCa3kRo-3" target="_-7BfLkcEHN0cJCa3kRo-4">
          <mxGeometry width="50" height="50" relative="1" as="geometry">
            <mxPoint x="180" y="320" as="sourcePoint" />
            <mxPoint x="230" y="270" as="targetPoint" />
          </mxGeometry>
        </mxCell>
        <mxCell id="kfsJDI4HwSLp78lYv02s-6" value="" style="endArrow=classic;html=1;rounded=0;entryX=0.5;entryY=0;entryDx=0;entryDy=0;" edge="1" parent="1" target="_-7BfLkcEHN0cJCa3kRo-5">
          <mxGeometry width="50" height="50" relative="1" as="geometry">
            <mxPoint x="150" y="430" as="sourcePoint" />
            <mxPoint x="200" y="380" as="targetPoint" />
          </mxGeometry>
        </mxCell>
        <mxCell id="kfsJDI4HwSLp78lYv02s-7" value="" style="endArrow=classic;html=1;rounded=0;entryX=0.5;entryY=0;entryDx=0;entryDy=0;" edge="1" parent="1" target="_-7BfLkcEHN0cJCa3kRo-6">
          <mxGeometry width="50" height="50" relative="1" as="geometry">
            <mxPoint x="150" y="520" as="sourcePoint" />
            <mxPoint x="200" y="470" as="targetPoint" />
          </mxGeometry>
        </mxCell>
        <mxCell id="kfsJDI4HwSLp78lYv02s-8" value="" style="endArrow=classic;html=1;rounded=0;entryX=0.5;entryY=0;entryDx=0;entryDy=0;exitX=0.5;exitY=1;exitDx=0;exitDy=0;" edge="1" parent="1" source="_-7BfLkcEHN0cJCa3kRo-6" target="_-7BfLkcEHN0cJCa3kRo-10">
          <mxGeometry width="50" height="50" relative="1" as="geometry">
            <mxPoint x="390" y="450" as="sourcePoint" />
            <mxPoint x="440" y="400" as="targetPoint" />
          </mxGeometry>
        </mxCell>
        <mxCell id="kfsJDI4HwSLp78lYv02s-9" value="" style="endArrow=classic;html=1;rounded=0;entryX=0.5;entryY=0;entryDx=0;entryDy=0;" edge="1" parent="1" target="_-7BfLkcEHN0cJCa3kRo-7">
          <mxGeometry width="50" height="50" relative="1" as="geometry">
            <mxPoint x="150" y="240" as="sourcePoint" />
            <mxPoint x="370" y="280" as="targetPoint" />
            <Array as="points">
              <mxPoint x="390" y="240" />
            </Array>
          </mxGeometry>
        </mxCell>
        <mxCell id="kfsJDI4HwSLp78lYv02s-10" value="" style="endArrow=classic;html=1;rounded=0;" edge="1" parent="1">
          <mxGeometry width="50" height="50" relative="1" as="geometry">
            <mxPoint x="390" y="240" as="sourcePoint" />
            <mxPoint x="520" y="280" as="targetPoint" />
            <Array as="points">
              <mxPoint x="520" y="240" />
            </Array>
          </mxGeometry>
        </mxCell>
        <mxCell id="kfsJDI4HwSLp78lYv02s-17" value="" style="endArrow=none;html=1;rounded=0;entryX=0.5;entryY=1;entryDx=0;entryDy=0;" edge="1" parent="1" target="_-7BfLkcEHN0cJCa3kRo-7">
          <mxGeometry width="50" height="50" relative="1" as="geometry">
            <mxPoint x="150" y="650" as="sourcePoint" />
            <mxPoint x="440" y="400" as="targetPoint" />
            <Array as="points">
              <mxPoint x="270" y="650" />
              <mxPoint x="390" y="650" />
            </Array>
          </mxGeometry>
        </mxCell>
        <mxCell id="kfsJDI4HwSLp78lYv02s-19" value="" style="endArrow=none;html=1;rounded=0;entryX=0.5;entryY=1;entryDx=0;entryDy=0;" edge="1" parent="1" target="_-7BfLkcEHN0cJCa3kRo-8">
          <mxGeometry width="50" height="50" relative="1" as="geometry">
            <mxPoint x="390" y="650" as="sourcePoint" />
            <mxPoint x="440" y="400" as="targetPoint" />
            <Array as="points">
              <mxPoint x="510" y="650" />
            </Array>
          </mxGeometry>
        </mxCell>
      </root>
    </mxGraphModel>
  </diagram>
</mxfile>
